# xmcd CD database file
#
# Track frame offsets:
#	150
#	18925
#	36622
#	54987
#	72072
#	89572
#	107255
#	124872
#	145255
#	164350
#	181427
#
# Disc length: 2673 seconds
#
# Revision: 0
# Processed by: cddbd v1.5.1PL0 Copyright (c) Steve Scherf et al.
# Submitted via: CDex 1.51
#
DISCID=930a6f0b
DTITLE=Viki - Prologue
DYEAR=2004
DGENRE=J Pop
TTITLE0=プロローグ
TTITLE1=ちがうよ(ALBUM VERSION)
TTITLE2=さよならを決めた日
TTITLE3=センチメンタルカフェ
TTITLE4=心のつぶて
TTITLE5=波の音が聴こえる？
TTITLE6=それから
TTITLE7=夢の中、胸の奥
TTITLE8=静寂の森（ALBUM VERSION）
TTITLE9=この恋の行方
TTITLE10=君がいなくなった今
EXTD=YEAR: 2004
EXTT0=
EXTT1=
EXTT2=
EXTT3=
EXTT4=
EXTT5=
EXTT6=
EXTT7=
EXTT8=
EXTT9=
EXTT10=
PLAYORDER=
